<?xml version="1.0" standalone="no"?><!DOCTYPE svg PUBLIC "-//W3C//DTD SVG 1.1//EN" "http://www.w3.org/Graphics/SVG/1.1/DTD/svg11.dtd"><svg t="1762845420524" class="icon" viewBox="0 0 1024 1024" version="1.1" xmlns="http://www.w3.org/2000/svg" p-id="7357" xmlns:xlink="http://www.w3.org/1999/xlink" width="200" height="200"><path d="M909.141333 209.322667l-56.405333 44.117333a419.669333 419.669333 0 0 0-750.677333 258.133333 419.84 419.84 0 0 0 814.421333 144.298667 8.021333 8.021333 0 0 0-4.864-10.24l-56.746667-19.541333a8.021333 8.021333 0 0 0-10.069333 4.778666 342.186667 342.186667 0 0 1-79.616 124.330667 341.76 341.76 0 0 1-243.114667 100.778667A341.333333 341.333333 0 0 1 279.04 755.2a342.186667 342.186667 0 0 1-100.693333-243.285333 342.186667 342.186667 0 0 1 100.693333-243.285334 341.76 341.76 0 0 1 243.114667-100.778666 341.333333 341.333333 0 0 1 243.029333 100.693333c9.898667 9.984 19.2 20.48 27.818667 31.488l-60.16 46.933333a8.021333 8.021333 0 0 0 2.986666 14.165334l175.530667 43.008a8.021333 8.021333 0 0 0 9.898667-7.68l0.853333-180.906667a8.021333 8.021333 0 0 0-12.970667-6.229333z" fill="#5A6172" p-id="7358"></path></svg>